HIERARCHY
ROOT Hips
{
  OFFSET 1.44925e-005 102.336 -0.101585
  CHANNELS 6 Xposition Yposition Zposition Zrotation Xrotation Yrotation
  JOINT LeftUpLeg
  {
    OFFSET 8.9458 -8.66707 0.101652
    CHANNELS 3 Zrotation Xrotation Yrotation
    JOINT LeftLeg
    {
      OFFSET 0 -44.4227 1.3727
      CHANNELS 3 Zrotation Xrotation Yrotation
      JOINT LeftFoot
      {
        OFFSET -0.253549 -42.0924 -1.46059
        CHANNELS 3 Zrotation Xrotation Yrotation
        JOINT LeftToes
        {
          OFFSET -0.04 -4.41509 8.4991
          CHANNELS 3 Zrotation Xrotation Yrotation
          End Site
          {
            OFFSET 0.08 -0.047448 9.77979
          }
        }
      }
    }
  }
  JOINT Spine
  {
    OFFSET 0 11.8905 0
    CHANNELS 3 Zrotation Xrotation Yrotation
    JOINT Spine1
    {
      OFFSET 0 25.6574 0.127663
      CHANNELS 3 Zrotation Xrotation Yrotation
      JOINT RightShoulder
      {
        OFFSET -8.99 -0.362252 -0.22
        CHANNELS 3 Zrotation Xrotation Yrotation
        JOINT RightArm
        {
          OFFSET -10.2827 -0.00338 0.322123
          CHANNELS 3 Zrotation Xrotation Yrotation
          JOINT RightForeArm
          {
            OFFSET -26.364 0.099144 -1.42434
            CHANNELS 3 Zrotation Xrotation Yrotation
            JOINT RightHand
            {
              OFFSET -22.0324 0.085362 1.02216
              CHANNELS 3 Zrotation Xrotation Yrotation
              End Site
              {
                OFFSET -13.3284 -0.6 1.50291
              }
            }
          }
        }
      }
      JOINT LeftShoulder1
      {
        OFFSET 8.99 -0.362252 -0.22
        CHANNELS 3 Zrotation Xrotation Yrotation
        JOINT LeftArm
        {
          OFFSET 10.2827 -0.00337999 0.322123
          CHANNELS 3 Zrotation Xrotation Yrotation
          JOINT LeftForeArm
          {
            OFFSET 26.2597 0.099144 -1.42434
            CHANNELS 3 Zrotation Xrotation Yrotation
            JOINT LeftHand
            {
              OFFSET 22.0902 0.085362 1.02216
              CHANNELS 3 Zrotation Xrotation Yrotation
              End Site
              {
                OFFSET 13.419 -0.6 1.50291
              }
            }
          }
        }
      }
      JOINT Head
      {
        OFFSET 0 8.73416 0.011341
        CHANNELS 3 Zrotation Xrotation Yrotation
        End Site
        {
          OFFSET -0.29 12.7742 2.51395
        }
      }
    }
  }
  JOINT RightUpLeg
  {
    OFFSET -8.9458 -8.66707 0.101652
    CHANNELS 3 Zrotation Xrotation Yrotation
    JOINT RightLeg
    {
      OFFSET 0 -44.4227 1.3727
      CHANNELS 3 Zrotation Xrotation Yrotation
      JOINT RightFoot
      {
        OFFSET 0.253549 -42.0924 -1.46059
        CHANNELS 3 Zrotation Xrotation Yrotation
        JOINT RightToes
        {
          OFFSET 0.04 -4.41509 8.4991
          CHANNELS 3 Zrotation Xrotation Yrotation
          End Site
          {
            OFFSET -0.08 -0.137448 9.77979
          }
        }
      }
    }
  }
}
MOTION
Frames:	17
Frame Time:	0.0333333
88.8864 101.093 -6.17853 -9.53976 0.922288 -87.9286 5.39189 -4.99163 5.40586 -0.245018 26.7919 -14.7415 -3.97376 -12.3088 -0.108467 -1.11495e-009 8.7508e-006 -1.48278e-008 6.22492 15.2981 -1.6885 -4.23806 3.63387 0.373657 34.6001 1.82966 0.46805 47.9416 -17.6501 17.2549 11.4183 47.8693 2.12081 -3.78463 9.78947 -1.42544 -40.7787 3.21968 -3.34138 -30.2212 -10.6947 -6.99814 -2.44177 36.8628 -16.7416 5.82328 9.61819 -0.917488 -5.16016 -13.6001 35.7968 0.784797 1.86108 -4.44874 -0.490677 17.9681 -10.9138 4.25951 -14.7769 0.050332 0.0462048 0.00053089 0.662642 
88.8886 101.072 -6.22589 -9.62261 0.827574 -87.2698 5.27021 -5.07695 4.74154 -0.245629 26.8868 -14.7428 -4.00371 -12.2989 -0.109143 -1.11495e-009 8.7508e-006 -1.48278e-008 6.58475 15.3572 -1.56043 -4.72563 3.61942 0.66519 34.5134 1.82948 0.467417 47.7731 -17.381 17.0017 11.3938 47.8939 2.23141 -3.83141 9.78619 -1.35537 -40.8432 3.22884 -3.34123 -29.9189 -10.5294 -7.0519 -2.32436 36.3761 -16.9767 5.82328 9.61819 -0.917488 -4.83844 -12.8254 38.5531 0.705727 1.95173 -4.67369 -0.304599 18.1082 -11.3721 4.27475 -14.8902 0.0548889 0.0462048 0.00053089 0.662642 
88.8909 101.052 -6.28202 -9.69755 0.763817 -86.5358 5.1934 -5.195 4.0515 -0.248293 27.0074 -14.792 -4.0397 -12.2929 -0.109677 -1.11495e-009 8.7508e-006 -1.48278e-008 6.88306 15.5224 -1.452 -5.04683 3.38297 0.888695 34.4206 1.833 0.48604 47.6228 -17.2765 16.8285 11.4803 47.909 2.14084 -3.83926 9.79151 -1.55548 -40.9275 3.2381 -3.34004 -29.5753 -10.3875 -6.94129 -2.29027 35.9551 -17.1104 5.82328 9.61819 -0.917488 -4.48916 -11.9041 41.1047 0.680875 2.05717 -4.87282 -0.110866 18.2118 -11.9321 4.31292 -14.9817 0.0602788 0.0462048 0.00053089 0.662642 
88.892 101.032 -6.35141 -9.73522 0.728186 -85.8154 5.16883 -5.35825 3.444 -0.253811 27.1385 -14.9117 -4.07439 -12.2828 -0.110082 -1.11495e-009 8.7508e-006 -1.48278e-008 7.17359 15.7383 -1.30813 -5.34851 3.01918 1.13806 34.3775 1.84256 0.514106 47.5364 -17.502 16.7896 11.6671 47.9992 1.82137 -3.88585 9.79282 -1.69787 -40.9107 3.24072 -3.3362 -29.2993 -10.3187 -6.84934 -2.38578 35.7617 -17.057 5.82328 9.61819 -0.917488 -4.02125 -10.9456 43.5482 0.72389 2.12255 -4.99023 0.0435317 18.292 -12.5731 4.3561 -15.0484 0.0652553 0.0462048 0.00053089 0.662642 
88.8903 101.015 -6.42258 -9.76276 0.702618 -85.1447 5.15467 -5.51631 2.87225 -0.258823 27.2563 -15.0211 -4.10182 -12.2723 -0.110372 -1.11495e-009 8.7508e-006 -1.48278e-008 7.43274 15.8628 -1.08378 -5.58976 2.87294 1.45821 34.2676 1.84787 0.536364 47.5974 -17.9435 17.0055 11.9062 48.0707 1.35765 -4.17955 9.7844 -1.7298 -40.9285 3.23989 -3.33329 -29.0615 -10.3532 -6.94781 -2.60596 35.7619 -16.8277 5.82328 9.61819 -0.917488 -3.65249 -10.1032 45.7798 0.792456 2.18616 -5.06289 0.171697 18.3381 -13.2069 4.38784 -15.0976 0.0689547 0.0462048 0.00053089 0.662642 
88.8829 100.998 -6.48766 -9.79094 0.670706 -84.4769 5.11422 -5.66493 2.24747 -0.261428 27.3682 -15.0715 -4.11309 -12.2723 -0.110569 -1.11495e-009 8.7508e-006 -1.48278e-008 7.63782 15.9151 -0.837222 -5.73924 2.90416 1.77921 34.1238 1.85021 0.541734 47.659 -18.2337 17.3607 12.0475 47.9509 1.07941 -4.52366 9.7766 -1.83038 -40.9735 3.23568 -3.33072 -28.9081 -10.5797 -7.09754 -2.86381 36.0226 -16.4925 5.82328 9.61819 -0.917488 -3.56415 -9.31623 47.719 0.862434 2.28246 -5.11776 0.282573 18.3306 -13.8118 4.4303 -15.1543 0.0736476 0.0462048 0.00053089 0.662642 
88.8698 100.974 -6.54912 -9.7815 0.609487 -83.7771 5.03227 -5.86181 1.60803 -0.264211 27.4944 -15.1252 -4.11163 -12.2784 -0.110683 -1.11495e-009 8.7508e-006 -1.48278e-008 7.82448 16.0174 -0.670298 -5.92211 2.7799 2.01314 34.1286 1.8515 0.534358 47.536 -18.2069 17.6693 11.9987 47.7119 1.18999 -4.49383 9.78307 -2.01776 -40.8665 3.22285 -3.31949 -28.9106 -10.9793 -7.01905 -3.03671 36.5592 -16.1773 5.82328 9.61819 -0.917488 -3.65432 -8.45239 49.4882 0.917685 2.37231 -5.14986 0.362022 18.2734 -14.4254 4.49715 -15.255 0.0815078 0.0462048 0.00053089 0.662642 
88.8526 100.942 -6.60466 -9.73023 0.498812 -83.0713 4.90118 -6.09821 1.03889 -0.269493 27.6232 -15.241 -4.11379 -12.2719 -0.110723 -1.11495e-009 8.7508e-006 -1.48278e-008 8.00511 16.1226 -0.582828 -6.15709 2.55346 2.16653 34.1842 1.85191 0.539095 47.4122 -18.0554 17.9961 11.8157 47.5391 1.51928 -4.13085 9.79688 -2.13593 -40.7136 3.20671 -3.30889 -28.9028 -11.4103 -6.74355 -3.16008 37.1799 -15.8967 5.82328 9.61819 -0.917488 -3.80769 -7.51778 51.2372 0.915907 2.43671 -5.20137 0.428078 18.1983 -15.0379 4.5512 -15.4024 0.0902035 0.0462048 0.00053089 0.662642 
88.8257 100.915 -6.64589 -9.69746 0.361614 -82.3915 4.74318 -6.27901 0.523232 -0.275871 27.7167 -15.3862 -4.12349 -12.2448 -0.1107 -1.11495e-009 8.7508e-006 -1.48278e-008 8.1598 16.0889 -0.48167 -6.27494 2.57369 2.31674 33.9661 1.85161 0.571811 47.6297 -17.9986 18.4745 11.5721 47.4112 1.86878 -3.91228 9.80301 -2.13711 -40.8229 3.21659 -3.31296 -28.6762 -11.8949 -6.57586 -3.42679 37.8139 -15.4641 5.82328 9.61819 -0.917488 -4.04446 -6.55184 52.8176 0.849055 2.50528 -5.33421 0.527792 18.1777 -15.603 4.57468 -15.536 0.0964312 0.0462048 0.00053089 0.662642 
88.7911 100.906 -6.67508 -9.71039 0.25998 -81.7458 4.62176 -6.37324 0.0168937 -0.281739 27.7608 -15.52 -4.12639 -12.2105 -0.110634 -1.11495e-009 8.7508e-006 -1.48278e-008 8.36678 15.9791 -0.339221 -6.31863 2.78161 2.5149 33.5421 1.85078 0.606889 48.0839 -17.9508 18.9792 11.2487 47.1228 2.33464 -4.06592 9.79795 -2.10824 -41.1199 3.24278 -3.32255 -28.3444 -12.5441 -6.58552 -3.86465 38.5453 -14.8215 5.82328 9.61819 -0.917488 -4.22474 -5.57507 53.8571 0.788658 2.5554 -5.51604 0.665459 18.287 -16.122 4.6217 -15.5946 0.101777 0.0462048 0.00053089 0.662642 
88.7602 100.906 -6.70484 -9.72001 0.217755 -81.1565 4.5721 -6.45717 -0.421513 -0.288224 27.7828 -15.6712 -4.11936 -12.1839 -0.110546 -1.11495e-009 8.7508e-006 -1.48278e-008 8.78465 15.9909 -0.233702 -6.66945 2.78555 2.7579 33.3828 1.84962 0.607319 48.3236 -17.6794 19.3028 10.8231 46.6042 3.0552 -4.37147 9.78847 -2.07967 -41.2367 3.25064 -3.32115 -28.106 -13.1211 -6.49625 -4.20586 39.1236 -14.3091 5.82328 9.61819 -0.917488 -4.00901 -4.79859 54.2129 0.788315 2.53974 -5.65124 0.798829 18.4795 -16.6177 4.71278 -15.6053 0.108601 0.0462048 0.00053089 0.662642 
88.7328 100.906 -6.73826 -9.69064 0.179038 -80.6743 4.54261 -6.56756 -0.704859 -0.296167 27.8057 -15.8648 -4.12161 -12.1576 -0.110448 -1.11495e-009 8.7508e-006 -1.48278e-008 9.43282 16.1302 -0.205164 -7.54153 2.58566 3.0394 33.5851 1.8483 0.588922 48.2892 -17.1432 19.4942 10.3591 46.0009 3.91188 -4.57341 9.78021 -2.00123 -41.1919 3.24644 -3.3192 -27.8151 -13.2221 -6.16497 -4.24563 39.0698 -14.2674 5.82328 9.61819 -0.917488 -3.33948 -4.59875 54.1511 0.790399 2.51737 -5.72637 0.908608 18.5794 -17.0397 4.75681 -15.6532 0.113611 0.0462048 0.00053089 0.662642 
88.6959 100.907 -6.76516 -9.63325 0.0848772 -80.3428 4.45927 -6.65717 -0.846346 -0.303256 27.8086 -16.0467 -4.1422 -12.1127 -0.110347 -1.11495e-009 8.7508e-006 -1.48278e-008 10.1367 16.2188 -0.17571 -8.67976 2.56092 3.38098 33.6903 1.84699 0.59619 48.4077 -16.4889 19.7484 9.94716 45.46 4.68298 -4.59064 9.77623 -1.86403 -41.3465 3.26556 -3.33553 -27.272 -12.9965 -5.82158 -4.14951 38.4812 -14.5014 5.82328 9.61819 -0.917488 -2.57482 -5.08717 54.0368 0.705651 2.5595 -5.81466 1.00861 18.5149 -17.2899 4.68944 -15.7615 0.115131 0.0462048 0.00053089 0.662642 
88.6497 100.907 -6.78129 -9.52132 -0.0398369 -80.1635 4.32409 -6.7406 -0.920144 -0.306787 27.7605 -16.1443 -4.16072 -12.0533 -0.110258 -1.11495e-009 8.7508e-006 -1.48278e-008 10.7316 16.1904 -0.0562599 -9.72443 2.75639 3.79378 33.4579 1.84585 0.629799 48.8681 -15.8216 20.0862 9.63961 45.0151 5.27582 -4.41509 9.77991 -1.724 -41.7008 3.30375 -3.36084 -26.7164 -13.0869 -5.68144 -4.17398 38.0969 -14.5458 5.82328 9.61819 -0.917488 -2.00833 -5.92518 54.0164 0.544091 2.549 -5.93904 1.09481 18.4494 -17.3537 4.59393 -15.8699 0.115097 0.0462048 0.00053089 0.662642 
88.6054 100.908 -6.79866 -9.30081 -0.126806 -80.0717 4.20083 -6.91301 -0.976477 -0.307231 27.6772 -16.1622 -4.16096 -12.0121 -0.110211 -1.11495e-009 8.7508e-006 -1.48278e-008 11.1571 16.1416 0.146541 -10.5161 2.81432 4.21339 33.2052 1.84509 0.647785 49.337 -15.1789 20.3738 9.45074 44.6937 5.68665 -4.13201 9.78511 -1.62794 -41.8989 3.3227 -3.36977 -26.5512 -13.7224 -5.64956 -4.34614 38.3402 -14.2625 5.82328 9.61819 -0.917488 -1.64148 -6.67175 54.0843 0.398183 2.33022 -6.03923 1.14744 18.5275 -17.3547 4.56911 -15.9378 0.1143 0.0462048 0.00053089 0.662642 
88.5536 100.908 -6.83106 -9.02569 -0.160107 -79.9406 4.12695 -7.1622 -1.07519 -0.307274 27.6112 -16.1646 -4.16155 -12.0139 -0.11023 -1.11495e-009 8.7508e-006 -1.48278e-008 11.3668 16.1289 0.361382 -10.9597 2.62157 4.52779 33.1631 1.84488 0.641767 49.5759 -14.6914 20.5571 9.3522 44.5821 5.9166 -3.97147 9.78637 -1.55634 -41.9022 3.32079 -3.36532 -26.7221 -14.4696 -5.5606 -4.58599 38.8865 -13.8314 5.82328 9.61819 -0.917488 -1.46183 -7.10043 54.297 0.333405 2.03871 -6.07949 1.17983 18.6151 -17.455 4.5844 -15.9867 0.113568 0.0462048 0.00053089 0.662642 
88.469 100.907 -6.87631 -8.84979 -0.172984 -79.6676 4.09116 -7.33805 -1.30433 -0.308302 27.5988 -16.1879 -4.18758 -12.0499 -0.110327 -1.11495e-009 8.7508e-006 -1.48278e-008 11.3573 16.1113 0.522503 -10.9869 2.46907 4.67829 33.1018 1.84539 0.649743 49.8129 -14.5059 20.6999 9.2659 44.6904 6.02637 -4.05397 9.78079 -1.44335 -42.0419 3.33547 -3.37422 -26.8305 -14.9381 -5.44169 -4.88859 39.297 -13.3807 5.82328 9.61819 -0.917488 -1.552 -7.19281 54.7299 0.350604 1.98022 -6.09403 1.22824 18.5066 -17.7164 4.58039 -16.0335 0.11373 0.0462048 0.00053089 0.662642 
